<svg xmlns="http://www.w3.org/2000/svg" viewBox="0 0 1440 900" fill="none">
  <rect width="1440" height="900" fill="#0f172a"/>
  <!-- Sidebar -->
  <rect x="0" y="0" width="220" height="900" fill="#111827"/>
  <rect x="20" y="24" width="120" height="28" rx="6" fill="#0284c7" opacity="0.9"/>
  <text x="28" y="44" fill="white" font-family="system-ui,sans-serif" font-size="14" font-weight="700">Softoras ERP</text>
  <rect x="16" y="72" width="188" height="36" rx="8" fill="#0284c7"/>
  <text x="32" y="95" fill="white" font-family="system-ui,sans-serif" font-size="13" font-weight="600">Dashboard</text>
  <text x="32" y="140" fill="#94a3b8" font-family="system-ui,sans-serif" font-size="11" font-weight="700">CRM</text>
  <text x="32" y="168" fill="#cbd5e1" font-family="system-ui,sans-serif" font-size="12">Leads</text>
  <text x="32" y="192" fill="#cbd5e1" font-family="system-ui,sans-serif" font-size="12">Customers</text>
  <text x="32" y="228" fill="#94a3b8" font-family="system-ui,sans-serif" font-size="11" font-weight="700">SALES</text>
  <text x="32" y="256" fill="#cbd5e1" font-family="system-ui,sans-serif" font-size="12">Invoices</text>
  <text x="32" y="280" fill="#cbd5e1" font-family="system-ui,sans-serif" font-size="12">POS / Till</text>
  <!-- Top bar -->
  <rect x="220" y="0" width="1220" height="64" fill="#111827"/>
  <rect x="500" y="16" width="360" height="32" rx="8" fill="#1e293b"/>
  <rect x="980" y="16" width="96" height="32" rx="8" fill="#0284c7"/>
  <text x="1000" y="36" fill="white" font-family="system-ui,sans-serif" font-size="12" font-weight="700">+ Create</text>
  <!-- Dashboard title -->
  <text x="252" y="108" fill="white" font-family="system-ui,sans-serif" font-size="28" font-weight="700">Dashboard</text>
  <text x="252" y="132" fill="#94a3b8" font-family="system-ui,sans-serif" font-size="13">Welcome back! Here's what's happening.</text>
  <!-- Filter pills -->
  <rect x="252" y="152" width="56" height="28" rx="14" fill="#1e293b"/>
  <rect x="316" y="152" width="88" height="28" rx="14" fill="#1e293b"/>
  <rect x="412" y="152" width="96" height="28" rx="14" fill="#0284c7"/>
  <text x="428" y="170" fill="white" font-family="system-ui,sans-serif" font-size="11">This Month</text>
  <!-- KPI cards row 1 -->
  <g>
    <rect x="252" y="200" width="270" height="110" rx="12" fill="#1e293b"/>
    <text x="272" y="230" fill="#94a3b8" font-family="system-ui,sans-serif" font-size="12">Total Revenue</text>
    <text x="272" y="268" fill="white" font-family="system-ui,sans-serif" font-size="26" font-weight="700">$1,315,850</text>
    <text x="272" y="292" fill="#34d399" font-family="system-ui,sans-serif" font-size="11">+100.0% from last period</text>
    <rect x="252" y="326" width="270" height="110" rx="12" fill="#1e293b"/>
    <text x="272" y="356" fill="#94a3b8" font-family="system-ui,sans-serif" font-size="12">Net Profit</text>
    <text x="272" y="394" fill="white" font-family="system-ui,sans-serif" font-size="26" font-weight="700">$1,315,850</text>
    <rect x="538" y="200" width="270" height="110" rx="12" fill="#1e293b"/>
    <text x="558" y="230" fill="#94a3b8" font-family="system-ui,sans-serif" font-size="12">Outstanding Invoices</text>
    <text x="558" y="268" fill="white" font-family="system-ui,sans-serif" font-size="26" font-weight="700">$1,258,000</text>
    <rect x="538" y="326" width="270" height="110" rx="12" fill="#1e293b"/>
    <text x="558" y="356" fill="#94a3b8" font-family="system-ui,sans-serif" font-size="12">Today's Sales</text>
    <text x="558" y="394" fill="white" font-family="system-ui,sans-serif" font-size="26" font-weight="700">$1,258,000</text>
    <rect x="824" y="200" width="270" height="110" rx="12" fill="#1e293b"/>
    <text x="844" y="230" fill="#94a3b8" font-family="system-ui,sans-serif" font-size="12">Customers</text>
    <text x="844" y="268" fill="white" font-family="system-ui,sans-serif" font-size="26" font-weight="700">6</text>
    <rect x="824" y="326" width="270" height="110" rx="12" fill="#1e293b"/>
    <text x="844" y="356" fill="#94a3b8" font-family="system-ui,sans-serif" font-size="12">Active Leads</text>
    <text x="844" y="394" fill="white" font-family="system-ui,sans-serif" font-size="26" font-weight="700">5</text>
    <rect x="1110" y="200" width="270" height="110" rx="12" fill="#1e293b"/>
    <text x="1130" y="230" fill="#94a3b8" font-family="system-ui,sans-serif" font-size="12">Employees</text>
    <text x="1130" y="268" fill="white" font-family="system-ui,sans-serif" font-size="26" font-weight="700">18</text>
    <rect x="1110" y="326" width="270" height="110" rx="12" fill="#1e293b"/>
    <text x="1130" y="356" fill="#94a3b8" font-family="system-ui,sans-serif" font-size="12">Present Today</text>
    <text x="1130" y="394" fill="white" font-family="system-ui,sans-serif" font-size="26" font-weight="700">12</text>
  </g>
  <!-- Chart area -->
  <rect x="252" y="460" width="860" height="280" rx="12" fill="#1e293b"/>
  <text x="272" y="492" fill="white" font-family="system-ui,sans-serif" font-size="14" font-weight="600">Revenue Overview</text>
  <rect x="300" y="620" width="48" height="80" rx="4" fill="#0284c7" opacity="0.5"/>
  <rect x="360" y="580" width="48" height="120" rx="4" fill="#0284c7" opacity="0.65"/>
  <rect x="420" y="540" width="48" height="160" rx="4" fill="#0284c7" opacity="0.8"/>
  <rect x="480" y="500" width="48" height="200" rx="4" fill="#0ea5e9"/>
  <rect x="540" y="560" width="48" height="140" rx="4" fill="#0284c7" opacity="0.7"/>
  <rect x="600" y="520" width="48" height="180" rx="4" fill="#38bdf8"/>
  <rect x="660" y="480" width="48" height="220" rx="4" fill="#0ea5e9"/>
  <rect x="720" y="510" width="48" height="190" rx="4" fill="#0284c7"/>
  <!-- Side panel -->
  <rect x="1132" y="460" width="248" height="280" rx="12" fill="#1e293b"/>
  <text x="1152" y="492" fill="white" font-family="system-ui,sans-serif" font-size="14" font-weight="600">Quick Actions</text>
  <rect x="1152" y="512" width="208" height="40" rx="8" fill="#0284c7" opacity="0.2"/>
  <rect x="1152" y="564" width="208" height="40" rx="8" fill="#1e293b" stroke="#334155"/>
  <rect x="1152" y="616" width="208" height="40" rx="8" fill="#1e293b" stroke="#334155"/>
  <rect x="1152" y="668" width="208" height="40" rx="8" fill="#1e293b" stroke="#334155"/>
</svg>
