<svg xmlns="http://www.w3.org/2000/svg" viewBox="0 0 24 24" fill="#0ea5e9"><path d="M22.282 9.821a5.985 5.985 0 0 0-.516-4.91 6.046 6.046 0 0 0-6.51-2.9A6.065 6.065 0 0 0 4.981 4.18a5.985 5.985 0 0 0-3.998 2.9 6.046 6.046 0 0 0 .743 7.097 5.98 5.98 0 0 0 .51 4.911 6.051 6.051 0 0 0 6.515 2.9A5.985 5.985 0 0 0 13.26 24a6.056 6.056 0 0 0 5.772-4.206 5.99 5.99 0 0 0 3.997-2.9 6.056 6.056 0 0 0-.747-7.073zM13.26 22.43a4.476 4.476 0 0 1-2.876-1.04l.141-.081 4.779-2.758a.795.795 0 0 0 .392-.681v-6.737l2.02 1.168a.071.071 0 0 1 .038.052v5.583a4.504 4.504 0 0 1-4.494 4.494zM3.6 18.304a4.47 4.47 0 0 1-.535-3.014l.142.085 4.783 2.759a.771.771 0 0 0 .78 0l5.843-3.373v2.332a.08.08 0 0 1-.033.062L9.74 19.95a4.5 4.5 0 0 1-6.14-1.646zM2.373 7.533a4.507 4.507 0 0 1 2.365-1.973V11.6a.766.766 0 0 0 .388.676l5.815 3.355-2.02 1.168a.076.076 0 0 1-.071.006L3.9 13.99a4.5 4.5 0 0 1-1.527-6.457zM19.013 11.39l-5.835-3.387L15.2 6.84a.075.075 0 0 1 .071 0l4.83 2.786a4.494 4.494 0 0 1-.088 8.099v-5.678a.79.79 0 0 0-.4-.675zM20.93 8.14l-.141-.085-4.78-2.742a.776.776 0 0 0-.785 0L9.409 8.69V6.358a.066.066 0 0 1 .028-.061L14.2 3.5a4.5 4.5 0 0 1 6.73 4.64zM8.305 12.863l-2.02-1.163a.08.08 0 0 1-.038-.057V6.075a4.5 4.5 0 0 1 7.375-3.453l-.142.08L8.704 5.46a.795.795 0 0 0-.393.681zm1.097-1.98L12 9.167l2.598 1.5v2.98L12 15.15l-2.598-1.499z"/></svg>